<svg xmlns="http://www.w3.org/2000/svg" xmlns:xlink="http://www.w3.org/1999/xlink" width="1124" height="1124" viewBox="0 0 1124 1124"><defs><style>
      .cls-1 {
        fill-rule: evenodd;
      }
    </style></defs><image id="Layer_0" data-name="Layer 0" x="179" width="766" height="1124"></image><path id="Color_Fill_1" data-name="Color Fill 1" class="cls-1" d="M447,0h89c-0.116,46.7-36.859,61.757-49,97l27-3V93c-2-3.918-3.081-5.225,1-8l21-4c0.462,13.878.385,25.617-5,33-21.932,6.258-56.013,4.085-84,4,0.164-47.493,38.97-57.881,50-95h-2c-12.9-5.286-29.628,12.954-48,16V0ZM573,65H704c5.206,66.663-57.225,103.068-81,151l49-1V191h35q-1,28.5-2,57H571c-3.83-64.46,57.545-103.734,81-151-13.986-.332-35.955-2.361-45,3-2.189,5.856-3.161,12.567-3,22H568Q570.5,93.5,573,65ZM746,184H945c1.632,96.446-88.8,149.4-123,219,11.567,0.249,67.2,1.3,72-3q2-17,4-34h46q0.5,41.5,1,83l-199-2c-1.143-68.037,43.2-101.715,73-140,18.3-23.51,36.292-48.2,50-76v-1H795c0.957,10.671,4.057,29.209-4,34-10.361,5.954-31.16,2.37-45,2V184ZM639,444c98.557-1.8,183.258,81.654,156,190-17.96,71.387-58.506,120.848-76,191-6.645,26.648-3.134,56.3-8,86-6.458,39.421-12.427,72.171-26,103-14.809,33.64-38.476,67.26-63,92-6.608,6.67-20.563,24.29-33,15-17.6-10.74-14.246-84.65-10-112,11.436-73.669-19.644-130.286-78-141-20.192-3.707-38.605,3.205-50,9-49.916,25.386-60.081,83.606-48,154,5.488,31.98,3.779,75.71-14,91-30.022-3.51-48.2-32.42-62-53-21.352-31.85-43.884-66.34-54-109-10.415-43.922-2.842-98.324-15-138-20.469-66.8-59.971-116.788-76-189-13-58.546,10.357-108.14,35-139,26.389-33.046,98.232-63.473,162-44,35.248,10.764,57.015,37.681,95,45,35.624,6.864,85.471-26.832,111-37C601.566,451.4,621.139,451.466,639,444Z"></path></svg>