<svg xmlns="http://www.w3.org/2000/svg" width="1124.000000pt" height="1124.000000pt" viewBox="0 0 1124.000000 1124.000000" preserveAspectRatio="xMidYMid meet"><g transform="translate(0.000000,1124.000000) scale(0.100000,-0.100000)" fill="#000000" stroke="none"><path d="M5015 11220 c-508 -10 -808 -30 -902 -61 -44 -14 -89 -69 -108 -131 -34 -116 -42 -601 -14 -853 32 -288 113 -531 234 -700 50 -70 169 -187 238 -234 70 -48 220 -116 309 -140 140 -39 240 -52 498 -62 908 -38 1422 76 1712 379 173 182 248 393 248 702 0 76 -3 158 -6 184 -8 56 -16 59 -149 60 -77 1 -97 -3 -140 -24 -70 -35 -89 -74 -119 -252 -30 -171 -53 -238 -107 -310 -118 -159 -344 -252 -707 -292 -412 -46 -885 -19 -1136 65 -196 65 -330 174 -404 329 -65 136 -77 211 -75 445 1 160 6 226 25 330 l23 130 1080 3 c684 1 1111 -1 1164 -8 114 -13 169 -41 197 -99 26 -55 59 -73 146 -79 59 -4 72 -2 111 21 90 53 141 154 141 282 0 93 -21 149 -78 213 -68 75 -102 83 -405 92 -416 13 -1336 18 -1776 10z"></path><path d="M5545 8476 c-47 -21 -92 -79 -116 -153 -21 -62 -23 -92 -27 -355 -2 -159 -6 -288 -10 -288 -3 0 -38 32 -78 70 -91 88 -146 114 -225 107 -152 -14 -212 -113 -160 -263 28 -77 113 -202 216 -314 139 -152 407 -400 432 -400 38 0 216 97 298 163 105 84 237 223 319 333 73 98 152 248 162 306 6 35 3 41 -52 99 -85 89 -143 114 -208 90 -13 -6 -62 -43 -108 -84 -84 -74 -127 -107 -140 -107 -3 0 -6 127 -5 283 2 268 1 286 -21 354 -25 81 -68 138 -119 159 -41 17 -119 17 -158 0z"></path><path d="M7179 7840 c-106 -10 -268 -44 -292 -63 -9 -7 -26 -56 -39 -117 -21 -100 -22 -125 -23 -560 0 -411 -2 -461 -18 -520 -78 -273 -285 -412 -714 -477 -100 -15 -188 -18 -583 -18 -450 0 -468 1 -554 23 -115 29 -215 82 -294 156 -114 107 -187 227 -224 368 -19 76 -21 119 -28 533 -5 381 -9 461 -24 523 -10 40 -24 78 -31 86 -44 44 -436 69 -705 46 -518 -45 -853 -195 -972 -437 -34 -69 -61 -224 -42 -243 18 -18 162 -32 230 -21 64 10 92 22 288 124 175 92 336 136 576 157 63 5 140 12 171 15 l57 6 15 -108 c20 -135 25 -185 37 -408 12 -221 26 -344 50 -456 97 -451 409 -680 1040 -764 167 -23 642 -31 864 -16 475 32 757 122 949 301 241 225 335 556 340 1192 l1 248 36 -5 c19 -3 107 -14 195 -25 451 -58 717 -157 946 -353 224 -192 425 -560 485 -888 21 -113 23 -357 5 -474 -7 -44 -33 -181 -58 -305 -63 -318 -60 -445 14 -570 17 -29 20 -30 91 -30 183 0 224 51 292 360 148 663 111 1187 -115 1645 -215 438 -548 736 -1039 929 -285 113 -649 170 -927 146z"></path><path d="M2244 6940 c-124 -38 -271 -370 -329 -738 -74 -477 28 -1094 292 -1761 62 -157 122 -286 365 -791 331 -685 467 -1006 537 -1270 59 -222 65 -285 86 -865 26 -730 60 -985 161 -1193 221 -457 794 -395 1186 128 151 202 281 453 505 980 239 561 302 684 408 799 95 101 168 123 263 75 126 -63 218 -223 460 -804 213 -510 308 -708 440 -915 131 -205 299 -377 453 -464 170 -95 414 -127 557 -73 177 68 287 245 353 567 47 229 59 371 69 800 14 575 32 754 105 1019 52 191 104 310 340 786 122 245 245 501 274 570 120 284 178 494 188 677 l6 111 -58 7 c-80 10 -164 1 -212 -23 -92 -47 -155 -148 -253 -402 -29 -74 -104 -243 -168 -375 -309 -645 -471 -1053 -561 -1410 -71 -287 -82 -398 -81 -848 0 -477 -17 -663 -88 -958 l-28 -114 -39 4 c-73 6 -192 50 -266 99 -89 59 -197 170 -268 278 -65 98 -177 327 -266 544 -71 173 -245 573 -314 723 -137 297 -303 502 -476 588 -265 132 -531 68 -750 -181 -145 -165 -259 -389 -500 -985 -110 -273 -260 -585 -333 -695 -95 -143 -206 -253 -310 -308 -68 -36 -171 -64 -220 -60 -36 3 -36 4 -48 63 -42 208 -68 486 -84 890 -29 767 -66 990 -234 1419 -97 248 -160 385 -391 856 -239 489 -319 663 -410 895 -204 522 -298 975 -282 1360 10 230 37 353 123 546 81 182 92 277 47 380 -17 39 -26 47 -64 58 -58 18 -147 23 -185 11z"></path></g></svg>