<svg xmlns="http://www.w3.org/2000/svg" xmlns:xlink="http://www.w3.org/1999/xlink" id="Layer_1" x="0px" y="0px" viewBox="0 0 150 150" style="enable-background:new 0 0 150 150;" xml:space="preserve">
<style type="text/css">
	.st0{fill:#61C0E7;}
</style>
<path class="st0" d="M138.9,92.7h-11.8V80.9c0-1.3-1-2.3-2.3-2.3h-18.1c-1.3,0-2.3,1-2.3,2.3l0,11.8H92.6c-1.3,0-2.3,1-2.3,2.3  l0,18.1c0,0.6,0.2,1.2,0.7,1.6c0.4,0.4,1,0.7,1.6,0.7l6.9,0c-2.3,4-4.7,7.6-6.9,10.3c-1.4,1.7-2.8,3.1-3.9,3.9  c-0.6,0.4-1.1,0.7-1.6,0.9c-0.4,0.2-0.8,0.2-1.1,0.2c-0.4,0-0.8-0.1-1.1-0.2c-0.3-0.2-0.6-0.4-1-0.8c-0.6-0.7-1.3-1.9-1.9-3.5  c-1-2.8-1.7-6.6-2.4-10.8c-1-6.3-1.7-13.2-3.5-18.9c-0.9-2.8-1.9-5.3-3.6-7.3c-0.8-1-1.8-1.8-3-2.4c-1-0.5-2.2-0.8-3.5-0.9  c0,0-0.1,0-0.1,0c0,0-0.1,0-0.1,0c-0.1,0-0.1,0-0.2,0c-0.1,0-0.2,0-0.3,0.1c-1,0.1-1.9,0.3-2.8,0.6c-2,0.9-3.5,2.4-4.6,4.2  c-2,3.2-3,7.3-3.9,11.8c-1.3,6.7-2,14.2-3.3,19.9c-0.6,2.8-1.5,5.1-2.4,6.5c-0.4,0.7-0.9,1.2-1.3,1.4c-0.4,0.3-0.8,0.4-1.3,0.4  c-0.3,0-0.8-0.1-1.4-0.4c-1.2-0.6-2.7-1.9-4.4-3.8c-2.9-3.3-6.1-8.3-9.2-13.8c-4.6-8.3-9.1-18-12.3-25.6c-1.6-3.8-3-7-3.9-9.3  c-0.5-1.2-0.8-2.1-1.1-2.7c-0.2-0.6-0.4-1-0.4-1c-0.1-0.2-0.2-0.3-0.3-0.5c0-0.1,0-0.3-0.1-0.4c-2.6-5-4.1-10.9-4.1-17.1  c0-2.7,0.3-5.5,0.9-8.3c1.8-8.6,6.1-15.8,11.9-20.9c5.7-5.1,12.8-8,20-8c1.8,0,3.7,0.2,5.6,0.6c7,1.5,12.9,5.5,17.1,11.3  c0.8,1,2.2,1.3,3.2,0.5c1-0.8,1.3-2.2,0.5-3.2c-1.1-1.5-2.2-2.8-3.5-4.1c0.6,0,1.2,0.1,1.8,0.1c4.5,0,8.9-0.9,12.8-2.7  c1.8-0.8,3.7-1.4,5.7-1.9c1.9-0.4,3.7-0.6,5.6-0.6c7.3,0,14.3,2.9,20,8c5.7,5.1,10.1,12.3,11.9,20.9c0.6,2.8,0.9,5.6,0.9,8.3  c0,5-0.9,9.8-2.7,14.1c-0.5,1.2,0.1,2.5,1.3,3c1.2,0.5,2.5-0.1,3-1.3h0c2-4.9,3-10.2,3-15.8c0-3-0.3-6.1-1-9.2  c-2-9.5-6.8-17.6-13.3-23.4c-6.5-5.8-14.6-9.2-23.1-9.2c-2.2,0-4.3,0.2-6.5,0.7c-2.3,0.5-4.5,1.2-6.7,2.2c-3.3,1.5-7.1,2.3-10.9,2.3  c-3.7,0-7.4-0.7-10.8-2.2c-0.3-0.1-0.7-0.2-1-0.2c-2-0.9-4.2-1.6-6.4-2.1c-2.2-0.5-4.4-0.7-6.5-0.7c-8.5,0-16.6,3.4-23.1,9.2  C12,29.4,7.1,37.6,5.1,47.1c-0.7,3.1-1,6.2-1,9.2c0,6.9,1.6,13.6,4.6,19.3c0,0.1,0.1,0.1,0.2,0.2c0,0.1,0,0.1,0,0.2  c0,0,5.6,14.6,12.8,29.2c3.6,7.3,7.6,14.6,11.6,20.3c2,2.8,4,5.2,6,7c1,0.9,2,1.6,3.1,2.2c1.1,0.5,2.3,0.9,3.5,0.9  c1.1,0,2.2-0.3,3.2-0.8c0.9-0.5,1.7-1.1,2.3-1.8c1.2-1.4,2.1-3.1,2.7-5c1.2-3.4,1.9-7.4,2.6-11.7c1-6.4,1.8-13.2,3.3-18.2  c0.7-2.5,1.7-4.5,2.7-5.7c0.5-0.6,1-1,1.5-1.3c0.5-0.2,1-0.4,1.7-0.4c0.5,0,1,0.1,1.4,0.3c0.9,0.4,1.7,1.1,2.5,2.4  c1.4,2.2,2.5,6,3.3,10.2c1.2,6.4,1.9,13.9,3.3,20c0.7,3.1,1.6,5.8,3,8c0.7,1.1,1.6,2.1,2.7,2.8c1.1,0.7,2.4,1.1,3.8,1.1  c1,0,1.9-0.2,2.8-0.6c1.6-0.6,3-1.7,4.4-3c2.1-2,4.2-4.6,6.2-7.6c1.7-2.4,3.3-5.2,4.9-8v10.9c0,1.3,1,2.3,2.3,2.3h18.1  c0.6,0,1.2-0.2,1.6-0.7c0.4-0.4,0.7-1,0.7-1.6v-11.8l11.8,0c0.6,0,1.2-0.2,1.6-0.7c0.4-0.4,0.7-1,0.7-1.6V95  C141.2,93.7,140.2,92.7,138.9,92.7z M124.8,110.8c-1.3,0-2.3,1-2.3,2.3v11.8H109v-11.8c0-0.6-0.2-1.2-0.7-1.6  c-0.4-0.4-1-0.7-1.6-0.7l-2.9,0c0,0-0.1,0-0.1,0l-8.8,0l0-13.5h11.8c0.6,0,1.2-0.2,1.6-0.7c0.4-0.4,0.7-1,0.7-1.6l0-11.8h13.5V95  c0,0.6,0.2,1.2,0.7,1.6c0.4,0.4,1,0.7,1.6,0.7h11.8v13.5L124.8,110.8z"></path>
</svg>